# xmcd
#
# Track frame offsets:
#	150
#	19760
#	34187
#	48312
#	64895
#	80482
#	94147
#	113860
#	128497
#	147185
#	166205
#	181355
#	197847
#	214897
#
# Disc length: 3100 seconds
#
# Revision: 2
# Processed by: cddbd v1.5.2PL0 Copyright (c) Steve Scherf et al.
# Submitted via: EasyCDDAExtractor 12.0.0.1
#
DISCID=c20c1a0e
DTITLE=Various Artist - Bailão De Peão
DYEAR=2001
DGENRE=Sertanejo
TTITLE0=Chitãozinho E Xororó - Bailão De Peão
TTITLE1=Tonico E Tinoco - Moreninha Linda
TTITLE2=Adalberto E Adriano - Não Acredito
TTITLE3=Tiãozinho E Alessandro - Fui Dando Porrada
TTITLE4=João Mineiro E Marciano - Viola Está Chorando
TTITLE5=Jad E Jefferson - Saco De Ouro
TTITLE6=Chitãozinho E Xororó - Peão De Rodeio
TTITLE7=Tonico E Tinoco - O Menino Da Porteira
TTITLE8=Marciano - Paixão Proibida
TTITLE9=Luan E Leomar - Nelore Valente
TTITLE10=Sandy E Junior - Sabado À Noite
TTITLE11=Danny E Daniel - O Primeiro Pecado
TTITLE12=João Mineiro E Marciano - Carta Ao Meu Pai
TTITLE13=Chitãozinho E Xororó - Ave Maria
EXTD=
EXTT0=
EXTT1=
EXTT2=
EXTT3=
EXTT4=
EXTT5=
EXTT6=
EXTT7=
EXTT8=
EXTT9=
EXTT10=
EXTT11=
EXTT12=
EXTT13=
PLAYORDER=
